<svg xmlns="http://www.w3.org/2000/svg" viewBox="0 0 7697 7783" xmlns:xlink="http://www.w3.org/1999/xlink">
  <path fill="#E94781" d="M837 2202l38 -64c15,-25 19,-47 12,-66 -7,-19 -20,-35 -40,-47 -20,-12 -40,-16 -59,-12 -19,4 -35,18 -49,41l-39 66 137 82zm-207 -124l33 -55c27,-46 20,-81 -22,-106 -18,-11 -36,-15 -54,-12 -18,3 -35,17 -50,42l-33 55 125 75zm-47 -297c41,-9 79,-4 114,18 24,15 42,35 51,61 10,26 9,56 -2,91 24,-29 52,-46 83,-51 31,-6 63,2 95,21 23,14 43,33 57,56 15,23 21,51 20,84 -1,33 -14,68 -37,108l-113 190 -490 -293 109 -182c35,-58 72,-92 113,-101z"/>
  <polygon fill="#E94781" points="1420,940 1248,1092 1334,1189 1495,1045 1561,1119 1400,1262 1494,1368 1669,1212 1736,1287 1466,1527 1087,1101 1353,865 "/>
  <path fill="#E94781" d="M2315 893c-47,-7 -89,-30 -126,-68l78 -88c23,24 48,40 73,47 26,7 53,3 83,-10 20,-9 35,-21 46,-37 11,-16 12,-33 3,-53 -9,-20 -21,-33 -35,-37 -14,-5 -34,-5 -60,-2l-78 12c-47,7 -88,4 -122,-11 -34,-14 -60,-40 -77,-78 -14,-32 -19,-63 -14,-95 5,-31 19,-60 42,-86 23,-26 52,-47 88,-64 47,-21 91,-29 133,-25 42,4 78,20 109,48l-60 103c-25,-23 -50,-36 -74,-40 -25,-4 -48,-1 -70,9 -24,11 -39,24 -46,38 -7,15 -7,30 0,45 13,30 44,42 91,35l80 -11c48,-8 89,-5 123,8 34,13 60,40 80,83 14,30 18,62 13,94 -5,32 -19,63 -42,91 -23,28 -55,52 -95,70 -49,22 -97,29 -143,22z"/>
  <polygon fill="#E94781" points="3584,0 3595,105 3442,122 3494,584 3368,599 3316,136 3163,153 3151,49 "/>
  <path fill="#E94781" d="M5549 709c31,17 56,21 77,14 21,-7 37,-22 49,-44 12,-23 16,-45 11,-66 -5,-21 -22,-40 -52,-56l-50 -27 -84 153 48 26zm-194 241l-111 -61 274 -501 184 101c42,23 72,49 90,79 18,30 26,59 24,89 -2,29 -9,57 -23,82 -15,27 -34,49 -59,67 -25,18 -55,27 -90,28 -35,1 -74,-10 -117,-34l-69 -38 -103 188z"/>
  <path fill="#E94781" d="M6387 1326l46 47c19,20 39,31 59,32 20,1 40,-8 59,-26 20,-19 30,-39 30,-59 0,-21 -10,-41 -29,-61l-46 -48 -119 115zm-14 107l-47 -49 -165 159 -87 -91 412 -395 144 150c44,46 68,92 70,139 2,47 -17,89 -57,128 -24,23 -51,37 -80,42 -29,5 -59,1 -90,-12l-102 257 -95 -99 98 -229z"/>
  <polygon fill="#E94781" points="7247,2270 6909,2438 6963,2547 6877,2590 6713,2259 6799,2216 6853,2324 7191,2157 7138,2049 7224,2006 7388,2337 7302,2380 "/>
  <path fill="#E94781" d="M7289 3456l1 5c12,-4 27,-8 45,-12 18,-4 35,-7 49,-10l293 -45 17 111 -564 86 -19 -126 293 -182c17,-11 43,-23 78,-37l-1 -6c-22,8 -50,15 -82,20l-311 48 -17 -110 564 -86 20 134 -283 171c-28,16 -56,30 -83,40z"/>
  <polygon fill="#E94781" points="7631,4711 7527,4695 7550,4542 7090,4471 7110,4346 7569,4417 7593,4265 7697,4281 "/>
  <polygon fill="#E94781" points="7134,5748 7236,5543 7120,5485 7025,5678 6937,5635 7033,5442 6905,5379 6801,5589 6711,5544 6871,5221 7382,5475 7224,5793 "/>
  <path fill="#E94781" d="M6286 6266c-25,26 -32,58 -21,96 11,38 39,78 84,121 42,41 81,65 116,74 35,8 66,-1 92,-29l42 -43 -272 -262 -41 42zm470 195l-139 144c-33,34 -69,55 -109,64 -40,9 -81,6 -124,-10 -43,-16 -85,-44 -126,-83 -42,-41 -73,-83 -92,-128 -19,-44 -25,-87 -18,-129 7,-41 26,-79 58,-112l138 -143 411 396z"/>
  <path fill="#E94781" d="M4429 7317l85 -17 65 169c11,29 23,63 36,102l6 -1c-16,-65 -29,-120 -38,-166l-49 -252 106 -20 108 560 -140 27 -81 -200c-15,-39 -25,-71 -31,-95l-6 1c4,24 7,57 7,99l-1 215 -140 27 -108 -560 106 -20 49 252c9,46 18,102 27,168l6 -1c-2,-41 -4,-77 -5,-108l-3 -180z"/>
  <path fill="#E94781" d="M3376 7675c15,-59 42,-140 81,-243l-109 -12c14,102 22,187 24,255l3 0zm-41 -353l156 18 45 -119 123 14 -223 549 -147 -17 -94 -585 123 14 16 126z"/>
  <polygon fill="#E94781" points="2016,7371 2060,7275 2200,7338 2391,6914 2507,6966 2316,7390 2456,7453 2413,7549 "/>
  <polygon fill="#E94781" points="1054,6669 1124,6590 1239,6693 1548,6345 1643,6430 1334,6777 1448,6879 1378,6958 "/>
  <polygon fill="#E94781" points="452,5691 570,5887 681,5821 570,5636 655,5586 765,5771 887,5698 767,5496 853,5445 1038,5755 548,6047 366,5742 "/>
  <path fill="#E94781" d="M279 4802l-15 -64c-6,-27 -18,-46 -35,-57 -17,-11 -39,-14 -65,-8 -27,6 -45,18 -56,36 -10,18 -13,40 -6,67l15 64 161 -38zm66 -85l16 66 223 -52 29 123 -556 130 -47 -203c-15,-62 -11,-114 11,-155 22,-41 60,-69 114,-81 32,-8 62,-6 90,5 28,11 52,29 72,56l219 -168 31 134 -201 147z"/>
</svg>
