<svg xmlns="http://www.w3.org/2000/svg" viewBox="0 0 3392 3843" xmlns:xlink="http://www.w3.org/1999/xlink">
 <defs>
  <style type="text/css">
    .str0 {stroke:#FEFEFE;stroke-width:12;stroke-miterlimit:10}
    .fil0 {fill:none;fill-rule:nonzero}
    .fil1 {fill:#FEFEFE;fill-rule:nonzero}
  </style>
 </defs>
  <g>
    <g id="_2106733771696">
     <path class="fil0 str0" d="M223 214c-22,0 -30,9 -30,121 0,20 10,28 31,28 38,0 43,-41 43,-71 0,-30 -6,-78 -45,-78zm-169 101c0,-64 -4,-79 -7,-82 -8,-8 -41,0 -41,-35 0,-42 127,-74 172,-74 15,0 17,5 17,19 0,4 1,13 7,13 9,0 43,-33 93,-33 81,0 124,81 124,153 0,82 -58,170 -148,170 -29,0 -58,-15 -63,-15 -9,0 -10,13 -10,20 0,47 38,32 38,62 0,34 -56,39 -80,39 -82,0 -147,-30 -147,-62 0,-28 25,-17 36,-41 6,-13 9,-31 9,-99l0 -34z"/>
     <path class="fil0 str0" d="M223 762c-22,0 -30,9 -30,121 0,20 10,28 31,28 38,0 43,-41 43,-71 0,-30 -6,-78 -45,-78zm-169 102c0,-65 -4,-79 -7,-82 -8,-8 -41,0 -41,-35 0,-42 127,-74 172,-74 15,0 17,5 17,18 0,4 1,13 7,13 9,0 43,-33 93,-33 81,0 124,81 124,153 0,82 -58,170 -148,170 -29,0 -58,-15 -63,-15 -9,0 -10,13 -10,20 0,47 38,32 38,62 0,34 -56,39 -80,39 -82,0 -147,-30 -147,-62 0,-28 25,-17 36,-41 6,-13 9,-31 9,-99l0 -34z"/>
     <path class="fil1" d="M223 1309c-22,0 -30,9 -30,121 0,20 10,28 31,28 38,0 43,-41 43,-71 0,-30 -6,-78 -45,-78zm-169 102c0,-65 -4,-79 -7,-82 -8,-8 -41,0 -41,-35 0,-42 127,-74 172,-74 15,0 17,5 17,18 0,4 1,13 7,13 9,0 43,-33 93,-33 81,0 124,81 124,152 0,82 -58,170 -148,170 -29,0 -58,-15 -63,-15 -9,0 -10,13 -10,20 0,47 38,32 38,62 0,34 -56,39 -80,39 -82,0 -147,-30 -147,-61 0,-28 25,-17 36,-41 6,-13 9,-31 9,-99l0 -34z"/>
     <path class="fil1" d="M223 1857c-22,0 -30,9 -30,121 0,20 10,28 31,28 38,0 43,-41 43,-71 0,-30 -6,-78 -45,-78zm-169 101c0,-65 -4,-79 -7,-82 -8,-8 -41,0 -41,-35 0,-42 127,-74 172,-74 15,0 17,5 17,19 0,4 1,13 7,13 9,0 43,-33 93,-33 81,0 124,81 124,152 0,82 -58,170 -148,170 -29,0 -58,-15 -63,-15 -9,0 -10,13 -10,20 0,47 38,32 38,62 0,35 -56,39 -80,39 -82,0 -147,-30 -147,-62 0,-28 25,-17 36,-41 6,-13 9,-31 9,-99l0 -34z"/>
     <path class="fil1" d="M223 2405c-22,0 -30,9 -30,121 0,20 10,28 31,28 38,0 43,-41 43,-71 0,-30 -6,-78 -45,-78zm-169 101c0,-65 -4,-79 -7,-82 -8,-8 -41,0 -41,-35 0,-42 127,-74 172,-74 15,0 17,5 17,19 0,4 1,13 7,13 9,0 43,-33 93,-33 81,0 124,81 124,153 0,82 -58,170 -148,170 -29,0 -58,-15 -63,-15 -9,0 -10,13 -10,20 0,47 38,32 38,62 0,35 -56,39 -80,39 -82,0 -147,-30 -147,-62 0,-28 25,-17 36,-41 6,-13 9,-31 9,-99l0 -34z"/>
     <path class="fil0 str0" d="M223 2952c-22,0 -30,9 -30,121 0,20 10,28 31,28 38,0 43,-41 43,-71 0,-30 -6,-78 -45,-78zm-169 101c0,-65 -4,-79 -7,-82 -8,-8 -41,0 -41,-35 0,-42 127,-74 172,-74 15,0 17,5 17,18 0,4 1,13 7,13 9,0 43,-33 93,-33 81,0 124,81 124,153 0,82 -58,170 -148,170 -29,0 -58,-15 -63,-15 -9,0 -10,13 -10,20 0,47 38,32 38,62 0,34 -56,39 -80,39 -82,0 -147,-30 -147,-62 0,-28 25,-17 36,-41 6,-13 9,-31 9,-99l0 -34z"/>
     <path class="fil0 str0" d="M223 3500c-22,0 -30,9 -30,121 0,20 10,28 31,28 38,0 43,-41 43,-71 0,-30 -6,-78 -45,-78zm-169 102c0,-65 -4,-79 -7,-82 -8,-8 -41,0 -41,-35 0,-42 127,-74 172,-74 15,0 17,5 17,18 0,4 1,13 7,13 9,0 43,-33 93,-33 81,0 124,81 124,153 0,82 -58,170 -148,170 -29,0 -58,-15 -63,-15 -9,0 -10,13 -10,20 0,47 38,32 38,62 0,34 -56,39 -80,39 -82,0 -147,-30 -147,-61 0,-28 25,-17 36,-41 6,-13 9,-31 9,-99l0 -34z"/>
    </g>
    <g id="_2106733770352">
     <path class="fil0 str0" d="M478 251c0,-60 -38,-27 -38,-64 0,-49 144,-62 149,-62 23,0 24,6 26,27 1,7 0,22 10,22 15,0 24,-49 77,-49 41,0 68,31 68,71 0,41 -35,74 -76,74 -40,0 -51,-35 -67,-35 -17,0 -14,41 -14,52 0,19 2,44 5,68 4,27 50,10 50,47 0,39 -54,42 -122,42 -28,0 -112,1 -112,-41 0,-26 28,-26 35,-47 5,-15 7,-50 7,-68l0 -37z"/>
     <path class="fil0 str0" d="M478 799c0,-60 -38,-26 -38,-64 0,-49 144,-62 149,-62 23,0 24,6 26,27 1,7 0,22 10,22 15,0 24,-49 77,-49 41,0 68,31 68,71 0,41 -35,74 -76,74 -40,0 -51,-35 -67,-35 -17,0 -14,41 -14,52 0,18 2,44 5,68 4,27 50,10 50,47 0,39 -54,42 -122,42 -28,0 -112,1 -112,-41 0,-26 28,-26 35,-47 5,-15 7,-50 7,-68l0 -37z"/>
     <path class="fil1" d="M478 1346c0,-60 -38,-26 -38,-64 0,-49 144,-62 149,-62 23,0 24,6 26,27 1,7 0,22 10,22 15,0 24,-49 77,-49 41,0 68,31 68,71 0,41 -35,74 -76,74 -40,0 -51,-35 -67,-35 -17,0 -14,41 -14,52 0,18 2,44 5,68 4,27 50,11 50,47 0,39 -54,42 -122,42 -28,0 -112,1 -112,-41 0,-26 28,-26 35,-47 5,-15 7,-50 7,-68l0 -37z"/>
     <path class="fil1" d="M478 1894c0,-60 -38,-27 -38,-64 0,-49 144,-62 149,-62 23,0 24,6 26,27 1,7 0,22 10,22 15,0 24,-49 77,-49 41,0 68,31 68,71 0,41 -35,74 -76,74 -40,0 -51,-35 -67,-35 -17,0 -14,41 -14,52 0,19 2,44 5,68 4,27 50,11 50,47 0,39 -54,42 -122,42 -28,0 -112,1 -112,-41 0,-26 28,-26 35,-47 5,-15 7,-50 7,-68l0 -37z"/>
     <path class="fil1" d="M478 2441c0,-60 -38,-26 -38,-64 0,-49 144,-62 149,-62 23,0 24,6 26,27 1,7 0,22 10,22 15,0 24,-49 77,-49 41,0 68,31 68,71 0,41 -35,74 -76,74 -40,0 -51,-35 -67,-35 -17,0 -14,41 -14,52 0,19 2,44 5,68 4,27 50,10 50,47 0,39 -54,42 -122,42 -28,0 -112,1 -112,-41 0,-26 28,-26 35,-47 5,-15 7,-50 7,-68l0 -37z"/>
     <path class="fil0 str0" d="M478 2989c0,-60 -38,-26 -38,-64 0,-49 144,-62 149,-62 23,0 24,6 26,27 1,7 0,22 10,22 15,0 24,-49 77,-49 41,0 68,31 68,71 0,41 -35,74 -76,74 -40,0 -51,-35 -67,-35 -17,0 -14,41 -14,52 0,18 2,44 5,68 4,27 50,11 50,47 0,39 -54,42 -122,42 -28,0 -112,1 -112,-41 0,-26 28,-26 35,-47 5,-15 7,-50 7,-68l0 -37z"/>
     <path class="fil0 str0" d="M478 3537c0,-60 -38,-26 -38,-64 0,-49 144,-62 149,-62 23,0 24,6 26,27 1,7 0,22 10,22 15,0 24,-49 77,-49 41,0 68,31 68,71 0,41 -35,74 -76,74 -40,0 -51,-35 -67,-35 -17,0 -14,41 -14,52 0,18 2,44 5,68 4,27 50,11 50,47 0,39 -54,42 -122,42 -28,0 -112,1 -112,-41 0,-26 28,-26 35,-47 5,-15 7,-51 7,-68l0 -37z"/>
    </g>
    <g id="_2106739202496">
     <path class="fil0 str0" d="M841 105c-26,0 -54,-12 -54,-42 0,-41 81,-57 113,-57 25,0 60,8 60,39 0,48 -84,60 -119,60zm122 218c0,73 36,46 36,79 0,42 -78,42 -106,42 -106,0 -110,-24 -110,-39 0,-22 25,-23 33,-42 8,-22 9,-111 3,-134 -6,-22 -37,-15 -37,-42 0,-44 156,-62 162,-62 18,0 19,14 19,27l0 171z"/>
     <path class="fil0 str0" d="M841 653c-26,0 -54,-12 -54,-42 0,-41 81,-57 113,-57 25,0 60,8 60,39 0,48 -84,60 -119,60zm122 218c0,73 36,46 36,79 0,42 -78,42 -106,42 -106,0 -110,-24 -110,-39 0,-22 25,-23 33,-42 8,-22 9,-111 3,-133 -6,-22 -37,-15 -37,-42 0,-44 156,-62 162,-62 18,0 19,14 19,27l0 172z"/>
     <path class="fil1" d="M841 1200c-26,0 -54,-12 -54,-42 0,-41 81,-57 113,-57 25,0 60,8 60,39 0,48 -84,60 -119,60zm122 218c0,73 36,46 36,79 0,42 -78,42 -106,42 -106,0 -110,-24 -110,-39 0,-22 25,-23 33,-42 8,-22 9,-111 3,-133 -6,-22 -37,-15 -37,-42 0,-44 156,-62 162,-62 18,0 19,14 19,27l0 172z"/>
     <path class="fil1" d="M841 1748c-26,0 -54,-12 -54,-42 0,-41 81,-57 113,-57 25,0 60,8 60,39 0,48 -84,60 -119,60zm122 218c0,73 36,46 36,79 0,42 -78,42 -106,42 -106,0 -110,-24 -110,-39 0,-22 25,-23 33,-43 8,-22 9,-111 3,-133 -6,-22 -37,-15 -37,-42 0,-44 156,-62 162,-62 18,0 19,14 19,27l0 172z"/>
     <path class="fil1" d="M841 2296c-26,0 -54,-12 -54,-42 0,-41 81,-57 113,-57 25,0 60,8 60,39 0,48 -84,60 -119,60zm122 218c0,73 36,46 36,79 0,42 -78,42 -106,42 -106,0 -110,-24 -110,-39 0,-22 25,-23 33,-42 8,-22 9,-111 3,-133 -6,-22 -37,-15 -37,-43 0,-44 156,-62 162,-62 18,0 19,14 19,27l0 172z"/>
     <path class="fil0 str0" d="M841 2843c-26,0 -54,-12 -54,-42 0,-41 81,-57 113,-57 25,0 60,8 60,39 0,48 -84,60 -119,60zm122 218c0,73 36,46 36,79 0,42 -78,42 -106,42 -106,0 -110,-24 -110,-39 0,-22 25,-23 33,-42 8,-22 9,-111 3,-133 -6,-22 -37,-15 -37,-42 0,-44 156,-62 162,-62 18,0 19,14 19,27l0 172z"/>
     <path class="fil0 str0" d="M841 3391c-26,0 -54,-12 -54,-42 0,-41 81,-57 113,-57 25,0 60,8 60,39 0,48 -84,60 -119,60zm122 218c0,73 36,46 36,79 0,42 -78,42 -106,42 -106,0 -110,-24 -110,-39 0,-22 25,-23 33,-42 8,-22 9,-111 3,-133 -6,-22 -37,-15 -37,-42 0,-44 156,-62 162,-62 18,0 19,14 19,27l0 172z"/>
    </g>
    <g id="_2106739206192">
     <path class="fil0 str0" d="M1189 335c0,60 21,49 21,73 0,38 -82,37 -107,37 -25,0 -87,0 -87,-37 0,-30 28,-3 30,-63l3 -92c1,-46 -36,-31 -36,-63 0,-33 141,-63 154,-63 14,0 22,12 22,24 0,4 -1,7 -1,11 0,7 3,16 12,16 10,0 15,-13 28,-26 12,-12 31,-25 66,-25 127,0 106,125 112,218 3,49 28,38 28,64 0,11 3,37 -113,37 -22,0 -81,1 -81,-33 0,-22 20,-12 23,-52 3,-44 20,-142 -38,-142 -39,0 -36,42 -36,70l0 47z"/>
     <path class="fil0 str0" d="M1189 882c0,60 21,49 21,73 0,38 -82,37 -107,37 -25,0 -87,0 -87,-37 0,-30 28,-3 30,-63l3 -92c1,-46 -36,-31 -36,-63 0,-33 141,-63 154,-63 14,0 22,12 22,24 0,4 -1,7 -1,11 0,7 3,16 12,16 10,0 15,-13 28,-26 12,-12 31,-25 66,-25 127,0 106,125 112,218 3,49 28,38 28,64 0,11 3,37 -113,37 -22,0 -81,1 -81,-33 0,-22 20,-12 23,-52 3,-44 20,-142 -38,-142 -39,0 -36,42 -36,70l0 47z"/>
     <path class="fil1" d="M1189 1430c0,60 21,49 21,73 0,38 -82,37 -107,37 -25,0 -87,0 -87,-37 0,-30 28,-3 30,-63l3 -92c1,-46 -36,-31 -36,-63 0,-33 141,-63 154,-63 14,0 22,12 22,24 0,4 -1,7 -1,11 0,7 3,16 12,16 10,0 15,-13 28,-26 12,-12 31,-25 66,-25 127,0 106,125 112,218 3,49 28,38 28,64 0,11 3,37 -113,37 -22,0 -81,1 -81,-33 0,-22 20,-12 23,-52 3,-44 20,-142 -38,-142 -39,0 -36,42 -36,70l0 47z"/>
     <path class="fil1" d="M1189 1977c0,60 21,49 21,73 0,38 -82,37 -107,37 -25,0 -87,0 -87,-37 0,-30 28,-3 30,-63l3 -92c1,-46 -36,-31 -36,-63 0,-33 141,-63 154,-63 14,0 22,12 22,24 0,4 -1,7 -1,11 0,7 3,16 12,16 10,0 15,-13 28,-26 12,-12 31,-25 66,-25 127,0 106,125 112,218 3,49 28,38 28,64 0,11 3,37 -113,37 -22,0 -81,1 -81,-33 0,-22 20,-12 23,-52 3,-44 20,-142 -38,-142 -39,0 -36,43 -36,70l0 47z"/>
     <path class="fil1" d="M1189 2525c0,60 21,49 21,73 0,38 -82,37 -107,37 -25,0 -87,0 -87,-37 0,-30 28,-3 30,-63l3 -92c1,-46 -36,-31 -36,-63 0,-33 141,-63 154,-63 14,0 22,12 22,24 0,4 -1,7 -1,11 0,7 3,16 12,16 10,0 15,-13 28,-26 12,-12 31,-25 66,-25 127,0 106,125 112,218 3,49 28,38 28,64 0,11 3,37 -113,37 -22,0 -81,1 -81,-33 0,-22 20,-12 23,-52 3,-44 20,-142 -38,-142 -39,0 -36,42 -36,70l0 47z"/>
     <path class="fil0 str0" d="M1189 3073c0,60 21,49 21,73 0,38 -82,37 -107,37 -25,0 -87,0 -87,-37 0,-29 28,-3 30,-63l3 -92c1,-46 -36,-31 -36,-63 0,-33 141,-63 154,-63 14,0 22,12 22,24 0,4 -1,7 -1,11 0,7 3,16 12,16 10,0 15,-13 28,-26 12,-12 31,-25 66,-25 127,0 106,125 112,218 3,49 28,38 28,64 0,11 3,37 -113,37 -22,0 -81,1 -81,-33 0,-22 20,-12 23,-52 3,-44 20,-142 -38,-142 -39,0 -36,42 -36,70l0 47z"/>
     <path class="fil0 str0" d="M1189 3620c0,60 21,49 21,73 0,38 -82,37 -107,37 -25,0 -87,0 -87,-37 0,-30 28,-3 30,-63l3 -92c1,-45 -36,-31 -36,-63 0,-33 141,-63 154,-63 14,0 22,12 22,24 0,4 -1,7 -1,11 0,7 3,16 12,16 10,0 15,-13 28,-26 12,-12 31,-25 66,-25 127,0 106,125 112,218 3,49 28,38 28,64 0,11 3,37 -113,37 -22,0 -81,1 -81,-33 0,-22 20,-12 23,-52 3,-44 20,-142 -38,-142 -39,0 -36,42 -36,70l0 47z"/>
    </g>
    <g id="_2106739207728">
     <path class="fil0 str0" d="M1638 304c0,41 17,51 34,51 19,0 30,-14 41,-14 12,0 21,17 21,28 0,41 -70,76 -132,76 -31,0 -110,-14 -110,-111l0 -127c0,-11 0,-15 -3,-17 -3,-2 -10,-1 -24,-1 -16,0 -24,1 -27,-2 -4,-4 -3,-11 -3,-25 0,-9 -2,-15 6,-20l140 -89c14,-9 14,-7 32,-7 25,0 26,-3 26,26 0,19 -1,38 2,46 2,5 6,5 22,5l43 0c27,0 27,2 27,30 0,35 -4,38 -28,38l-42 0c-22,0 -23,1 -23,23l0 92z"/>
     <path class="fil0 str0" d="M1638 852c0,41 17,51 34,51 19,0 30,-14 41,-14 12,0 21,17 21,28 0,41 -70,76 -132,76 -31,0 -110,-14 -110,-111l0 -127c0,-11 0,-15 -3,-17 -3,-2 -10,-1 -24,-1 -16,0 -24,1 -27,-2 -4,-4 -3,-11 -3,-25 0,-9 -2,-15 6,-20l140 -89c14,-9 14,-7 32,-7 25,0 26,-3 26,26 0,19 -1,38 2,46 2,5 6,5 22,5l43 0c27,0 27,2 27,30 0,35 -4,38 -28,38l-42 0c-22,0 -23,1 -23,23l0 92z"/>
     <path class="fil1" d="M1638 1400c0,41 17,51 34,51 19,0 30,-14 41,-14 12,0 21,17 21,28 0,41 -70,76 -132,76 -31,0 -110,-14 -110,-111l0 -127c0,-11 0,-15 -3,-17 -3,-2 -10,-1 -24,-1 -16,0 -24,1 -27,-3 -4,-4 -3,-11 -3,-25 0,-9 -2,-15 6,-20l140 -89c14,-9 14,-7 32,-7 25,0 26,-2 26,26 0,19 -1,38 2,46 2,5 6,5 22,5l43 0c27,0 27,2 27,30 0,35 -4,38 -28,38l-42 0c-22,0 -23,1 -23,23l0 92z"/>
     <path class="fil1" d="M1638 1947c0,41 17,51 34,51 19,0 30,-14 41,-14 12,0 21,17 21,28 0,41 -70,76 -132,76 -31,0 -110,-14 -110,-111l0 -127c0,-11 0,-15 -3,-17 -3,-2 -10,-1 -24,-1 -16,0 -24,1 -27,-3 -4,-4 -3,-10 -3,-25 0,-9 -2,-15 6,-20l140 -89c14,-9 14,-7 32,-7 25,0 26,-3 26,26 0,19 -1,38 2,46 2,5 6,5 22,5l43 0c27,0 27,2 27,30 0,35 -4,38 -28,38l-42 0c-22,0 -23,1 -23,23l0 92z"/>
     <path class="fil1" d="M1638 2495c0,41 17,51 34,51 19,0 30,-14 41,-14 12,0 21,17 21,28 0,41 -70,76 -132,76 -31,0 -110,-14 -110,-111l0 -127c0,-11 0,-15 -3,-17 -3,-2 -10,-1 -24,-1 -16,0 -24,1 -27,-2 -4,-4 -3,-11 -3,-25 0,-9 -2,-15 6,-20l140 -89c14,-9 14,-7 32,-7 25,0 26,-3 26,26 0,19 -1,38 2,46 2,5 6,5 22,5l43 0c27,0 27,2 27,30 0,35 -4,38 -28,38l-42 0c-22,0 -23,1 -23,23l0 92z"/>
     <path class="fil0 str0" d="M1638 3043c0,41 17,51 34,51 19,0 30,-14 41,-14 12,0 21,17 21,28 0,41 -70,76 -132,76 -31,0 -110,-14 -110,-111l0 -127c0,-11 0,-15 -3,-17 -3,-2 -10,-1 -24,-1 -16,0 -24,1 -27,-2 -4,-4 -3,-11 -3,-25 0,-9 -2,-15 6,-20l140 -89c14,-9 14,-7 32,-7 25,0 26,-3 26,26 0,19 -1,38 2,46 2,5 6,5 22,5l43 0c27,0 27,2 27,30 0,35 -4,38 -28,38l-42 0c-22,0 -23,1 -23,23l0 92z"/>
     <path class="fil0 str0" d="M1638 3590c0,41 17,51 34,51 19,0 30,-14 41,-14 12,0 21,17 21,28 0,41 -70,76 -132,76 -31,0 -110,-14 -110,-111l0 -127c0,-11 0,-15 -3,-17 -3,-2 -10,-1 -24,-1 -16,0 -24,1 -27,-3 -4,-4 -3,-10 -3,-25 0,-9 -2,-15 6,-20l140 -89c14,-9 14,-7 32,-7 25,0 26,-2 26,26 0,19 -1,38 2,46 2,5 6,5 22,5l43 0c27,0 27,2 27,30 0,35 -4,38 -28,38l-42 0c-22,0 -23,1 -23,23l0 92z"/>
    </g>
    <g id="_2106739197408">
     <path class="fil0 str0" d="M1875 344c0,16 9,33 26,33 23,0 25,-25 25,-44 0,-14 1,-29 -17,-29 -21,0 -35,20 -35,39zm184 -54c0,108 37,49 37,82 0,35 -48,73 -93,73 -49,0 -50,-31 -65,-31 -7,0 -15,8 -29,15 -14,8 -32,16 -60,16 -51,0 -102,-27 -102,-88 0,-44 42,-98 150,-98 19,0 28,1 28,-21 0,-20 -1,-63 -29,-63 -37,0 -41,66 -95,66 -20,0 -34,-14 -34,-34 0,-52 104,-86 162,-86 35,0 131,14 131,106l0 62z"/>
     <path class="fil0 str0" d="M1875 892c0,16 9,33 26,33 23,0 25,-25 25,-44 0,-14 1,-29 -17,-29 -21,0 -35,20 -35,39zm184 -54c0,108 37,49 37,82 0,35 -48,73 -93,73 -49,0 -50,-31 -65,-31 -7,0 -15,8 -29,15 -14,8 -32,16 -60,16 -51,0 -102,-27 -102,-88 0,-44 42,-98 150,-98 19,0 28,1 28,-21 0,-20 -1,-63 -29,-63 -37,0 -41,66 -95,66 -20,0 -34,-14 -34,-34 0,-52 104,-86 162,-86 35,0 131,14 131,106l0 61z"/>
     <path class="fil1" d="M1875 1440c0,16 9,33 26,33 23,0 25,-25 25,-44 0,-14 1,-29 -17,-29 -21,0 -35,20 -35,39zm184 -54c0,108 37,49 37,82 0,35 -48,73 -93,73 -49,0 -50,-31 -65,-31 -7,0 -15,8 -29,15 -14,8 -32,16 -60,16 -51,0 -102,-27 -102,-88 0,-44 42,-98 150,-98 19,0 28,1 28,-21 0,-20 -1,-63 -29,-63 -37,0 -41,66 -95,66 -20,0 -34,-14 -34,-34 0,-52 104,-86 162,-86 35,0 131,14 131,106l0 62z"/>
     <path class="fil1" d="M1875 1987c0,16 9,33 26,33 23,0 25,-25 25,-44 0,-14 1,-29 -17,-29 -21,0 -35,20 -35,39zm184 -54c0,108 37,49 37,82 0,35 -48,73 -93,73 -49,0 -50,-31 -65,-31 -7,0 -15,8 -29,15 -14,8 -32,16 -60,16 -51,0 -102,-27 -102,-88 0,-44 42,-98 150,-98 19,0 28,1 28,-21 0,-20 -1,-63 -29,-63 -37,0 -41,66 -95,66 -20,0 -34,-14 -34,-34 0,-52 104,-86 162,-86 35,0 131,14 131,106l0 62z"/>
     <path class="fil1" d="M1875 2535c0,16 9,33 26,33 23,0 25,-25 25,-44 0,-14 1,-29 -17,-29 -21,0 -35,20 -35,39zm184 -54c0,108 37,49 37,82 0,35 -48,73 -93,73 -49,0 -50,-31 -65,-31 -7,0 -15,8 -29,15 -14,8 -32,16 -60,16 -51,0 -102,-27 -102,-88 0,-44 42,-98 150,-98 19,0 28,1 28,-21 0,-20 -1,-63 -29,-63 -37,0 -41,66 -95,66 -20,0 -34,-14 -34,-34 0,-52 104,-86 162,-86 35,0 131,14 131,106l0 61z"/>
     <path class="fil0 str0" d="M1875 3083c0,16 9,33 26,33 23,0 25,-25 25,-44 0,-14 1,-29 -17,-29 -21,0 -35,20 -35,39zm184 -54c0,108 37,49 37,82 0,35 -48,73 -93,73 -49,0 -50,-31 -65,-31 -7,0 -15,8 -29,15 -14,8 -32,16 -60,16 -51,0 -102,-27 -102,-88 0,-44 42,-98 150,-98 19,0 28,1 28,-21 0,-20 -1,-63 -29,-63 -37,0 -41,66 -95,66 -20,0 -34,-14 -34,-34 0,-52 104,-86 162,-86 35,0 131,14 131,106l0 62z"/>
     <path class="fil0 str0" d="M1875 3630c0,16 9,33 26,33 23,0 25,-25 25,-44 0,-14 1,-29 -17,-29 -21,0 -35,20 -35,39zm184 -54c0,108 37,49 37,82 0,35 -48,73 -93,73 -49,0 -50,-31 -65,-31 -7,0 -15,8 -29,15 -14,8 -32,16 -60,16 -51,0 -102,-27 -102,-88 0,-44 42,-98 150,-98 19,0 28,1 28,-21 0,-20 -1,-63 -29,-63 -37,0 -41,66 -95,66 -20,0 -34,-14 -34,-34 0,-52 104,-86 162,-86 35,0 131,14 131,106l0 62z"/>
    </g>
    <g id="_2106739765696">
     <path class="fil0 str0" d="M2316 218c-27,0 -30,22 -30,43 0,119 7,129 31,129 41,0 47,-46 47,-77 0,-29 -8,-95 -49,-95zm-31 -66c0,3 -1,10 4,10 3,0 13,-10 29,-19 16,-10 38,-19 65,-19 65,0 120,55 120,136 0,105 -79,187 -184,187 -77,0 -114,-40 -124,-40 -10,0 -20,9 -40,9 -9,0 -19,-2 -19,-12 0,-10 12,-30 12,-109l0 -164c0,-36 -46,-20 -46,-55 0,-41 119,-69 170,-69 17,0 16,13 15,26l-4 119z"/>
     <path class="fil0 str0" d="M2316 765c-27,0 -30,22 -30,43 0,119 7,129 31,129 41,0 47,-46 47,-77 0,-29 -8,-95 -49,-95zm-31 -66c0,3 -1,10 4,10 3,0 13,-10 29,-19 16,-10 38,-19 65,-19 65,0 120,55 120,136 0,105 -79,187 -184,187 -77,0 -114,-40 -124,-40 -10,0 -20,9 -40,9 -9,0 -19,-2 -19,-12 0,-10 12,-30 12,-109l0 -164c0,-36 -46,-20 -46,-55 0,-41 119,-69 170,-69 17,0 16,13 15,27l-4 119z"/>
     <path class="fil1" d="M2316 1313c-27,0 -30,22 -30,43 0,119 7,129 31,129 41,0 47,-46 47,-78 0,-29 -8,-95 -49,-95zm-31 -66c0,3 -1,10 4,10 3,0 13,-10 29,-19 16,-10 38,-19 65,-19 65,0 120,55 120,136 0,105 -79,187 -184,187 -77,0 -114,-40 -124,-40 -10,0 -20,9 -40,9 -9,0 -19,-3 -19,-12 0,-10 12,-30 12,-110l0 -164c0,-36 -46,-20 -46,-55 0,-41 119,-69 170,-69 17,0 16,13 15,27l-4 119z"/>
     <path class="fil1" d="M2316 1861c-27,0 -30,22 -30,43 0,119 7,129 31,129 41,0 47,-46 47,-78 0,-29 -8,-95 -49,-95zm-31 -66c0,3 -1,10 4,10 3,0 13,-10 29,-19 16,-10 38,-19 65,-19 65,0 120,55 120,136 0,105 -79,187 -184,187 -77,0 -114,-40 -124,-40 -10,0 -20,9 -40,9 -9,0 -19,-3 -19,-12 0,-10 12,-30 12,-109l0 -164c0,-36 -46,-20 -46,-55 0,-41 119,-69 170,-69 17,0 16,13 15,26l-4 119z"/>
     <path class="fil1" d="M2316 2408c-27,0 -30,22 -30,43 0,119 7,129 31,129 41,0 47,-46 47,-77 0,-29 -8,-95 -49,-95zm-31 -66c0,3 -1,10 4,10 3,0 13,-10 29,-19 16,-10 38,-19 65,-19 65,0 120,55 120,136 0,105 -79,187 -184,187 -77,0 -114,-40 -124,-40 -10,0 -20,9 -40,9 -9,0 -19,-2 -19,-12 0,-10 12,-30 12,-109l0 -164c0,-36 -46,-20 -46,-55 0,-41 119,-69 170,-69 17,0 16,13 15,26l-4 119z"/>
     <path class="fil0 str0" d="M2316 2956c-27,0 -30,22 -30,43 0,119 7,129 31,129 41,0 47,-46 47,-77 0,-29 -8,-95 -49,-95zm-31 -66c0,3 -1,10 4,10 3,0 13,-10 29,-19 16,-10 38,-19 65,-19 65,0 120,55 120,136 0,105 -79,187 -184,187 -77,0 -114,-40 -124,-40 -10,0 -20,9 -40,9 -9,0 -19,-3 -19,-12 0,-10 12,-29 12,-109l0 -164c0,-36 -46,-20 -46,-55 0,-41 119,-69 170,-69 17,0 16,13 15,27l-4 119z"/>
     <path class="fil0 str0" d="M2316 3503c-27,0 -30,22 -30,43 0,119 7,129 31,129 41,0 47,-46 47,-78 0,-29 -8,-95 -49,-95zm-31 -66c0,3 -1,10 4,10 3,0 13,-10 29,-19 16,-10 38,-19 65,-19 65,0 120,55 120,136 0,105 -79,187 -184,187 -77,0 -114,-40 -124,-40 -10,0 -20,9 -40,9 -9,0 -19,-3 -19,-12 0,-10 12,-30 12,-110l0 -164c0,-36 -46,-20 -46,-55 0,-41 119,-69 170,-69 17,0 16,13 15,27l-4 119z"/>
    </g>
    <g id="_2106739765072">
     <path class="fil0 str0" d="M2706 327c0,11 -1,31 3,41 7,22 34,12 34,38 0,41 -75,38 -101,38 -28,0 -114,3 -114,-41 0,-22 27,-14 34,-36 8,-25 8,-102 8,-132 0,-24 1,-70 -4,-98 -9,-46 -46,-30 -46,-65 0,-53 160,-66 169,-66 21,0 26,14 26,32 0,14 -8,82 -8,170l0 119z"/>
     <path class="fil0 str0" d="M2706 875c0,11 -1,31 3,41 7,22 34,12 34,38 0,41 -75,38 -101,38 -28,0 -114,3 -114,-41 0,-22 27,-14 34,-36 8,-25 8,-102 8,-132 0,-24 1,-70 -4,-98 -9,-46 -46,-30 -46,-65 0,-54 160,-66 169,-66 21,0 26,14 26,32 0,14 -8,82 -8,170l0 119z"/>
     <path class="fil1" d="M2706 1422c0,11 -1,31 3,41 7,22 34,12 34,38 0,41 -75,38 -101,38 -28,0 -114,3 -114,-41 0,-22 27,-14 34,-36 8,-25 8,-102 8,-132 0,-24 1,-70 -4,-98 -9,-46 -46,-30 -46,-65 0,-53 160,-66 169,-66 21,0 26,14 26,32 0,14 -8,82 -8,170l0 119z"/>
     <path class="fil1" d="M2706 1970c0,11 -1,31 3,41 7,22 34,12 34,37 0,41 -75,38 -101,38 -28,0 -114,3 -114,-41 0,-22 27,-14 34,-36 8,-25 8,-102 8,-132 0,-24 1,-70 -4,-98 -9,-46 -46,-30 -46,-65 0,-54 160,-66 169,-66 21,0 26,14 26,32 0,14 -8,82 -8,170l0 119z"/>
     <path class="fil1" d="M2706 2518c0,11 -1,31 3,41 7,22 34,12 34,38 0,41 -75,38 -101,38 -28,0 -114,3 -114,-41 0,-22 27,-14 34,-36 8,-25 8,-102 8,-132 0,-24 1,-70 -4,-98 -9,-46 -46,-30 -46,-65 0,-54 160,-66 169,-66 21,0 26,14 26,32 0,14 -8,82 -8,170l0 119z"/>
     <path class="fil0 str0" d="M2706 3065c0,11 -1,31 3,41 7,22 34,12 34,38 0,41 -75,38 -101,38 -28,0 -114,3 -114,-41 0,-22 27,-14 34,-36 8,-25 8,-102 8,-132 0,-24 1,-70 -4,-98 -9,-46 -46,-30 -46,-65 0,-54 160,-66 169,-66 21,0 26,14 26,32 0,14 -8,82 -8,170l0 119z"/>
     <path class="fil0 str0" d="M2706 3613c0,11 -1,31 3,41 7,22 34,12 34,38 0,41 -75,38 -101,38 -28,0 -114,3 -114,-41 0,-22 27,-14 34,-36 8,-25 8,-102 8,-132 0,-24 1,-70 -4,-98 -9,-46 -46,-30 -46,-65 0,-53 160,-66 169,-66 21,0 26,14 26,32 0,14 -8,82 -8,170l0 119z"/>
    </g>
    <g id="_2106739767760">
     <path class="fil0 str0" d="M2966 218c0,-22 -14,-39 -36,-39 -20,0 -37,21 -37,41 0,22 21,17 37,17 17,0 36,4 36,-18zm-54 78c-7,0 -17,-2 -17,9 0,31 40,57 69,57 46,0 69,-28 82,-28 13,0 24,19 24,31 0,47 -87,82 -142,82 -111,0 -168,-80 -168,-159 0,-95 81,-164 173,-164 105,0 151,81 151,127 0,41 -19,46 -38,46l-134 0z"/>
     <path class="fil0 str0" d="M2966 766c0,-22 -14,-39 -36,-39 -20,0 -37,21 -37,41 0,22 21,17 37,17 17,0 36,4 36,-19zm-54 78c-7,0 -17,-2 -17,9 0,31 40,57 69,57 46,0 69,-28 82,-28 13,0 24,19 24,31 0,47 -87,82 -142,82 -111,0 -168,-80 -168,-159 0,-95 81,-164 173,-164 105,0 151,81 151,127 0,41 -19,46 -38,46l-134 0z"/>
     <path class="fil1" d="M2966 1314c0,-22 -14,-39 -36,-39 -20,0 -37,21 -37,41 0,22 21,17 37,17 17,0 36,4 36,-19zm-54 78c-7,0 -17,-2 -17,9 0,31 40,57 69,57 46,0 69,-28 82,-28 13,0 24,19 24,31 0,47 -87,82 -142,82 -111,0 -168,-80 -168,-159 0,-95 81,-164 173,-164 105,0 151,81 151,127 0,41 -19,46 -38,46l-134 0z"/>
     <path class="fil1" d="M2966 1861c0,-22 -14,-39 -36,-39 -20,0 -37,21 -37,41 0,22 21,17 37,17 17,0 36,4 36,-18zm-54 77c-7,0 -17,-2 -17,9 0,31 40,57 69,57 46,0 69,-28 82,-28 13,0 24,19 24,31 0,47 -87,82 -142,82 -111,0 -168,-80 -168,-159 0,-95 81,-164 173,-164 105,0 151,81 151,127 0,41 -19,46 -38,46l-134 0z"/>
     <path class="fil1" d="M2966 2409c0,-22 -14,-39 -36,-39 -20,0 -37,21 -37,41 0,22 21,17 37,17 17,0 36,4 36,-18zm-54 77c-7,0 -17,-2 -17,9 0,31 40,57 69,57 46,0 69,-28 82,-28 13,0 24,19 24,31 0,47 -87,82 -142,82 -111,0 -168,-80 -168,-159 0,-95 81,-164 173,-164 105,0 151,81 151,127 0,41 -19,46 -38,46l-134 0z"/>
     <path class="fil0 str0" d="M2966 2956c0,-22 -14,-39 -36,-39 -20,0 -37,21 -37,41 0,22 21,17 37,17 17,0 36,4 36,-19zm-54 78c-7,0 -17,-2 -17,9 0,31 40,57 69,57 46,0 69,-28 82,-28 13,0 24,19 24,31 0,47 -87,82 -142,82 -111,0 -168,-80 -168,-159 0,-95 81,-164 173,-164 105,0 151,81 151,127 0,41 -19,46 -38,46l-134 0z"/>
     <path class="fil0 str0" d="M2966 3504c0,-22 -14,-39 -36,-39 -20,0 -37,21 -37,41 0,22 21,17 37,17 17,0 36,4 36,-19zm-54 78c-7,0 -17,-2 -17,9 0,31 40,57 69,57 46,0 69,-28 82,-28 13,0 24,19 24,31 0,47 -87,82 -142,82 -111,0 -168,-80 -168,-159 0,-95 81,-164 173,-164 105,0 151,81 151,127 0,41 -19,46 -38,46l-134 0z"/>
    </g>
    <g id="_2106739770688">
     <path class="fil0 str0" d="M3270 127c11,2 21,4 25,4 6,0 11,-2 17,-4 6,-2 11,-4 17,-4 28,0 57,57 57,82 0,17 -14,29 -30,29 -35,0 -55,-49 -82,-49 -11,0 -22,9 -22,21 0,39 135,47 135,142 0,58 -56,98 -120,98 -12,0 -30,-2 -46,-4 -15,-2 -29,-4 -33,-4 -4,0 -8,1 -12,1 -4,1 -7,1 -12,1 -12,0 -19,-2 -27,-12 -15,-17 -31,-52 -31,-76 0,-16 6,-29 23,-29 27,0 52,61 86,61 12,0 24,-6 24,-20 0,-36 -121,-41 -121,-142 0,-62 50,-100 114,-100 12,0 25,1 37,4z"/>
     <path class="fil0 str0" d="M3270 674c11,2 21,4 25,4 6,0 11,-2 17,-4 6,-2 11,-4 17,-4 28,0 57,57 57,82 0,17 -14,29 -30,29 -35,0 -55,-49 -82,-49 -11,0 -22,9 -22,21 0,39 135,47 135,142 0,58 -56,98 -120,98 -12,0 -30,-2 -46,-4 -15,-2 -29,-4 -33,-4 -4,0 -8,1 -12,1 -4,1 -7,1 -12,1 -12,0 -19,-2 -27,-12 -15,-17 -31,-52 -31,-76 0,-16 6,-29 23,-29 27,0 52,61 86,61 12,0 24,-6 24,-20 0,-36 -121,-41 -121,-142 0,-61 50,-100 114,-100 12,0 25,1 37,4z"/>
     <path class="fil1" d="M3270 1222c11,2 21,4 25,4 6,0 11,-2 17,-4 6,-2 11,-4 17,-4 28,0 57,57 57,82 0,17 -14,29 -30,29 -35,0 -55,-49 -82,-49 -11,0 -22,9 -22,21 0,39 135,47 135,142 0,58 -56,98 -120,98 -12,0 -30,-2 -46,-4 -15,-2 -29,-4 -33,-4 -4,0 -8,1 -12,1 -4,1 -7,1 -12,1 -12,0 -19,-2 -27,-12 -15,-17 -31,-52 -31,-76 0,-16 6,-29 23,-29 27,0 52,61 86,61 12,0 24,-6 24,-20 0,-36 -121,-41 -121,-142 0,-62 50,-100 114,-100 12,0 25,1 37,4z"/>
     <path class="fil1" d="M3270 1770c11,2 21,4 25,4 6,0 11,-2 17,-4 6,-2 11,-4 17,-4 28,0 57,57 57,82 0,17 -14,29 -30,29 -35,0 -55,-49 -82,-49 -11,0 -22,9 -22,21 0,39 135,47 135,142 0,58 -56,98 -120,98 -12,0 -30,-2 -46,-4 -15,-2 -29,-4 -33,-4 -4,0 -8,1 -12,1 -4,1 -7,1 -12,1 -12,0 -19,-2 -27,-12 -15,-17 -31,-52 -31,-76 0,-16 6,-29 23,-29 27,0 52,61 86,61 12,0 24,-6 24,-20 0,-36 -121,-41 -121,-142 0,-62 50,-100 114,-100 12,0 25,1 37,4z"/>
     <path class="fil1" d="M3270 2317c11,2 21,4 25,4 6,0 11,-2 17,-4 6,-2 11,-4 17,-4 28,0 57,57 57,82 0,17 -14,29 -30,29 -35,0 -55,-49 -82,-49 -11,0 -22,9 -22,21 0,39 135,47 135,142 0,58 -56,98 -120,98 -12,0 -30,-2 -46,-4 -15,-2 -29,-4 -33,-4 -4,0 -8,1 -12,1 -4,1 -7,1 -12,1 -12,0 -19,-2 -27,-12 -15,-17 -31,-52 -31,-76 0,-16 6,-29 23,-29 27,0 52,61 86,61 12,0 24,-6 24,-20 0,-36 -121,-41 -121,-142 0,-62 50,-100 114,-100 12,0 25,1 37,4z"/>
     <path class="fil0 str0" d="M3270 2865c11,2 21,4 25,4 6,0 11,-2 17,-4 6,-2 11,-4 17,-4 28,0 57,57 57,82 0,17 -14,29 -30,29 -35,0 -55,-49 -82,-49 -11,0 -22,9 -22,21 0,39 135,47 135,142 0,58 -56,98 -120,98 -12,0 -30,-2 -46,-4 -15,-2 -29,-4 -33,-4 -4,0 -8,1 -12,1 -4,1 -7,1 -12,1 -12,0 -19,-2 -27,-12 -15,-17 -31,-52 -31,-76 0,-16 6,-29 23,-29 27,0 52,61 86,61 12,0 24,-6 24,-20 0,-36 -121,-41 -121,-142 0,-61 50,-100 114,-100 12,0 25,1 37,4z"/>
     <path class="fil0 str0" d="M3270 3412c11,2 21,4 25,4 6,0 11,-2 17,-4 6,-2 11,-4 17,-4 28,0 57,57 57,82 0,17 -14,29 -30,29 -35,0 -55,-49 -82,-49 -11,0 -22,9 -22,21 0,39 135,47 135,142 0,58 -56,98 -120,98 -12,0 -30,-2 -46,-4 -15,-2 -29,-4 -33,-4 -4,0 -8,1 -12,1 -4,1 -7,1 -12,1 -12,0 -19,-2 -27,-12 -15,-17 -31,-52 -31,-76 0,-16 6,-29 23,-29 27,0 52,61 86,61 12,0 24,-6 24,-20 0,-36 -121,-41 -121,-142 0,-62 50,-100 114,-100 12,0 25,1 37,4z"/>
    </g>
  </g>
</svg>
